<?xml version="1.0" encoding="utf-8"?>
<!-- Generator: Adobe Illustrator 28.0.0, SVG Export Plug-In . SVG Version: 6.00 Build 0)  -->
<svg version="1.1" id="Capa_2" xmlns="http://www.w3.org/2000/svg" xmlns:xlink="http://www.w3.org/1999/xlink" x="0px" y="0px"
	 viewBox="0 0 1080 1080" style="enable-background:new 0 0 1080 1080;" xml:space="preserve">
<style type="text/css">
	.st0{fill:none;stroke:#000000;stroke-width:15;stroke-miterlimit:10;}
	.st1{fill:none;stroke:#000000;stroke-width:10;stroke-miterlimit:10;}
	.st2{stroke:#000000;stroke-miterlimit:10;}
	.st3{fill:none;stroke:#000000;stroke-width:2;stroke-miterlimit:10;}
</style>
<path class="st0" d="M163.45,918.75L701,918.2c2.46,0,4.45-2,4.45-4.45v-547c0-2.46-1.99-4.45-4.45-4.45H421.94"/>
<path class="st0" d="M929.91,480.54"/>
<path class="st1" d="M940,196.65"/>
<path class="st1" d="M940,141.5"/>
<path class="st0" d="M811.5,577c36.22-36.9,73.99-77.29,110.21-114.19c1.75-1.78,4.79-0.56,4.79,1.93l0.42,221.9
	c0.02,8.27,0.57,7.78-4.34,12.86C849.53,775.03,774.42,843.47,701.38,919"/>
<path class="st2" d="M457.45,383.83h-29.03c-4.52,0-8.18-3.66-8.18-8.18v-28.68c0-4.52,3.66-8.18,8.18-8.18h29.03
	c4.52,0,8.18,3.66,8.18,8.18v28.68C465.64,380.17,461.97,383.83,457.45,383.83z"/>
<path class="st2" d="M828.84,594.19H799.8c-4.52,0-8.18-3.66-8.18-8.18v-28.68c0-4.52,3.66-8.18,8.18-8.18h29.03
	c4.52,0,8.18,3.66,8.18,8.18v28.68C837.02,590.53,833.36,594.19,828.84,594.19z"/>
<path class="st2" d="M177.22,941.5h-29.03c-4.52,0-8.18-3.66-8.18-8.18v-28.68c0-4.52,3.66-8.18,8.18-8.18h29.03
	c4.52,0,8.18,3.66,8.18,8.18v28.68C185.4,937.84,181.74,941.5,177.22,941.5z"/>
<g>
	<g>
		<path d="M475.81,691.55c24.83,0,49.67,0,74.5,0c7,0,14,0,21,0c3.14,0,6.15-2.76,6-6c-0.15-3.25-2.64-6-6-6
			c-24.83,0-49.67,0-74.5,0c-7,0-14,0-21,0c-3.14,0-6.15,2.76-6,6C469.96,688.8,472.45,691.55,475.81,691.55L475.81,691.55z"/>
	</g>
</g>
<g>
	<g>
		<g>
			<path d="M372.32,596.39c22.15,12.69,44.3,25.38,66.45,38.07c6.28,3.6,12.55,7.19,18.83,10.79c2.72,1.56,6.69,0.73,8.21-2.15
				c1.51-2.86,0.76-6.54-2.15-8.21c-22.15-12.69-44.3-25.38-66.45-38.07c-6.28-3.6-12.55-7.19-18.83-10.79
				c-2.72-1.56-6.69-0.73-8.21,2.15C368.65,591.04,369.41,594.72,372.32,596.39L372.32,596.39z"/>
		</g>
	</g>
	<g>
		<g>
			<path d="M377.53,694.93c22.15-12.69,44.3-25.38,66.45-38.06c6.28-3.6,12.55-7.19,18.83-10.79c2.72-1.56,3.9-5.5,2.15-8.21
				c-1.77-2.75-5.29-3.82-8.21-2.15c-22.15,12.69-44.3,25.38-66.45,38.06c-6.28,3.6-12.55,7.19-18.83,10.79
				c-2.72,1.56-3.9,5.5-2.15,8.21C371.09,695.53,374.61,696.6,377.53,694.93L377.53,694.93z"/>
		</g>
	</g>
</g>
<g>
	<g>
		<path d="M936.13,183.88c0-15.02,0-30.03,0-45.05c0-3.24-2.75-6-6-6c-15.66,0-31.31,0-46.97,0c-3.14,0-6.15,2.76-6,6
			c0.15,3.25,2.64,6,6,6c15.66,0,31.31,0,46.97,0c-2-2-4-4-6-6c0,15.02,0,30.03,0,45.05c0,3.14,2.76,6.15,6,6
			C933.38,189.73,936.13,187.24,936.13,183.88L936.13,183.88z"/>
	</g>
</g>
<path class="st0" d="M917.45,711.3"/>
<path class="st3" d="M708.59,922"/>
<path class="st0" d="M930,138.5c-76.21,78.95-154.11,151.62-230.31,230.57"/>
</svg>
